<svg xmlns="http://www.w3.org/2000/svg" viewBox="0 0 320 360" width="320" height="360" role="img" aria-labelledby="title desc">
	<title id="title">Animated Coral</title>
	<desc id="desc">A cartoon coral that gently grows and shrinks in a loop.</desc>

	<style>
		:root {
			--coral:#ff7a4a;
			--coral-stroke:#2b2b2b;
			--sand:#e9d6a7;
			--sand-stroke:#2b2b2b;
		}
	</style>

	<!-- simple grow animation -->
	<g filter="url(#shadow)">
		<g transform="translate(160,180)">
			<g>
				<animateTransform attributeName="transform"
													type="scale"
													values="0.8;1;0.8"
													dur="4s"
													repeatCount="indefinite"/>
				<g transform="translate(-160,-180)">
					<!-- sand base -->
					<path d="M62 300c-4 22 30 40 98 40s102-12 99-34c-3-22-45-28-99-28s-94 8-98 22z"
								fill="var(--sand)" stroke="var(--sand-stroke)" stroke-width="8" stroke-linejoin="round"/>

					<!-- coral body -->
					<path d="
						M162 298
						C160 260 160 240 150 232
						C134 220 120 238 120 254
						C120 266 126 276 126 286
						C126 294 114 300 106 294
						C90 282 84 256 90 234
						C98 202 130 188 154 202

						C154 174 150 160 134 146
						C118 132 116 108 128 94
						C138 82 158 80 170 90
						C186 102 186 124 180 142
						C202 128 210 110 210 94
						C210 76 226 64 242 70
						C258 76 266 96 258 112
						C248 132 230 148 214 160

						C238 168 260 186 264 210
						C268 236 252 260 234 262
						C218 264 210 248 212 232
						C198 250 188 266 186 298

						Z"
						fill="var(--coral)" stroke="var(--coral-stroke)" stroke-width="10" stroke-linejoin="round"/>
				</g>
			</g>
		</g>
	</g>

	<!-- drop shadow -->
	<defs>
		<filter id="shadow" x="-20%" y="-20%" width="140%" height="140%">
			<feDropShadow dx="0" dy="6" stdDeviation="6" flood-opacity="0.25"/>
		</filter>
	</defs>
</svg>
